<svg width="64" height="64" viewBox="0 0 64 64" fill="none" xmlns="http://www.w3.org/2000/svg">
<path d="M4.29534 36.5893C1.92309 34.2756 1.8756 30.4769 4.18928 28.1047L9.01219 23.1597C11.3857 20.726 15.305 20.7485 17.6506 23.2091L27.8254 33.8834C30.1133 36.2836 33.9144 36.3729 36.3124 34.0826L47.2764 23.6115C49.6619 21.3333 53.4391 21.408 55.7327 23.7787L59.5186 27.6922C61.8061 30.0566 61.7629 33.8221 59.4219 36.1335L35.9852 59.2736C33.6586 61.5708 29.9211 61.5823 27.5804 59.2994L4.29534 36.5893Z" fill="#D9D9D9"/>
<path d="M26.2392 5.79997C29.327 2.63984 34.392 2.58122 37.5521 5.66905L42.6479 10.6482C45.808 13.736 45.8666 18.801 42.7788 21.9612L37.555 27.3073C34.8532 30.0724 30.4213 30.1237 27.6562 27.4218L21.8452 21.7438C18.685 18.656 18.6264 13.591 21.7143 10.4309L26.2392 5.79997Z" fill="#D9D9D9"/>
</svg>
